<?xml version="1.0" standalone="no"?>
<!DOCTYPE svg PUBLIC "-//W3C//DTD SVG 20010904//EN"
 "http://www.w3.org/TR/2001/REC-SVG-20010904/DTD/svg10.dtd">
<svg version="1.0" xmlns="http://www.w3.org/2000/svg"
 width="512.000000pt" height="512.000000pt" viewBox="0 0 512.000000 512.000000"
 preserveAspectRatio="xMidYMid meet">

<g transform="translate(0.000000,512.000000) scale(0.100000,-0.100000)"
fill="#000000" stroke="none">
<path d="M2410 5098 c-61 -32 -90 -88 -90 -178 l0 -67 -92 -13 c-361 -49 -742
-208 -1052 -438 -113 -84 -296 -258 -391 -373 -253 -301 -433 -698 -498 -1091
l-22 -138 -66 0 c-89 0 -145 -29 -177 -90 -19 -38 -22 -60 -22 -150 0 -132 20
-181 89 -217 42 -22 54 -23 260 -23 l216 0 27 -138 c161 -827 825 -1473 1651
-1603 l77 -12 0 -73 c0 -88 8 -85 -155 -54 -353 69 -669 213 -952 437 -101 80
-291 274 -372 381 -160 212 -290 474 -356 717 -15 56 -36 110 -48 122 -36 40
-108 22 -121 -31 -8 -32 50 -233 109 -379 276 -675 858 -1180 1569 -1362 72
-18 175 -39 229 -46 l97 -13 0 -67 c0 -87 29 -144 90 -176 37 -20 58 -23 150
-23 92 0 113 3 150 23 61 32 90 89 90 176 l0 67 98 13 c53 7 156 28 227 46
765 193 1376 762 1624 1514 42 126 85 312 97 419 l7 62 67 0 c88 0 145 28 177
90 20 37 23 58 23 149 0 91 -3 113 -22 151 -32 61 -88 90 -177 90 l-66 0 -18
117 c-31 201 -89 395 -178 601 l-23 52 226 228 c217 218 227 229 243 286 43
147 -40 300 -183 339 -31 9 -98 24 -149 33 l-92 18 -101 101 -102 102 -28 135
c-32 153 -44 182 -96 228 -55 48 -110 70 -178 70 -116 0 -120 -2 -371 -251
l-230 -228 -90 40 c-181 81 -436 152 -627 175 l-58 6 0 68 c0 90 -29 146 -90
178 -38 19 -60 22 -150 22 -90 0 -112 -3 -150 -22z m238 -445 l2 -313 -90 0
-90 0 0 308 c0 170 3 312 7 316 4 4 43 5 88 4 l80 -3 3 -312z m1590 291 c34
-23 44 -50 67 -171 l22 -111 -382 -382 -382 -382 -38 195 c-24 123 -35 206
-31 224 5 19 107 128 314 336 l307 307 50 0 c30 0 60 -7 73 -16z m-1918 -318
l0 -74 -72 -12 c-247 -40 -516 -138 -727 -266 -192 -117 -407 -308 -543 -484
-209 -271 -357 -616 -403 -942 l-6 -48 -76 0 -76 0 7 53 c27 203 105 459 201
653 307 623 884 1056 1570 1178 134 24 125 28 125 -58z m685 42 c104 -21 324
-90 408 -128 l48 -21 -39 -43 c-21 -23 -44 -51 -49 -61 -10 -17 -14 -18 -40
-6 -98 46 -310 106 -460 131 l-73 12 0 75 0 75 53 -7 c28 -4 97 -16 152 -27z
m623 -1165 c-810 -809 -906 -903 -934 -903 -63 0 -110 70 -84 122 7 13 413
425 903 915 l892 893 62 -62 63 -63 -902 -902z m-1308 859 c0 -51 37 -122 79
-149 31 -21 46 -23 161 -23 115 0 130 2 161 23 42 27 79 98 79 150 l0 38 38
-7 c162 -28 297 -66 422 -116 41 -17 77 -33 79 -34 2 -2 25 -109 51 -238 l47
-234 -141 -141 -141 -140 -110 55 c-106 52 -242 94 -356 109 l-46 6 -6 67 c-4
56 -9 70 -32 89 -33 29 -57 29 -92 -1 l-28 -24 -3 -184 c-4 -210 5 -256 51
-272 65 -23 105 25 106 127 l1 48 38 -6 c124 -20 278 -70 341 -111 23 -16 23
-16 -257 -297 -272 -273 -281 -284 -297 -341 -54 -185 111 -348 299 -294 34
10 88 58 326 295 157 156 288 283 291 283 4 0 22 -35 42 -78 38 -83 70 -192
82 -279 l7 -53 -71 0 c-59 0 -73 -3 -91 -22 -20 -22 -25 -52 -14 -83 10 -26
60 -45 119 -45 l56 0 -7 -47 c-46 -319 -242 -589 -529 -728 -90 -44 -198 -78
-287 -91 l-48 -6 0 43 c0 90 -28 138 -80 138 -52 0 -80 -48 -80 -137 l0 -44
-52 7 c-91 13 -220 55 -305 100 -279 148 -462 408 -507 718 l-7 47 56 0 c59 0
109 19 119 45 11 31 6 61 -14 83 -18 19 -32 22 -91 22 l-71 0 7 53 c10 68 48
200 79 271 89 202 271 381 489 480 75 34 97 56 97 96 0 28 -43 70 -72 70 -35
0 -234 -103 -309 -159 -232 -176 -387 -441 -430 -732 l-11 -79 -66 0 c-54 0
-70 -4 -89 -22 -23 -21 -29 -51 -17 -83 10 -26 59 -45 117 -45 l55 0 12 -82
c32 -224 133 -427 294 -596 175 -183 392 -297 634 -333 l82 -12 1 -46 c0 -69
19 -114 51 -125 65 -23 106 25 107 125 l1 46 83 12 c242 36 457 149 633 333
161 169 262 372 294 596 l12 82 55 0 c107 0 154 57 102 124 -18 23 -27 26 -88
26 l-67 0 -17 105 c-22 129 -52 218 -111 332 l-46 88 139 139 139 139 239 -47
c132 -25 260 -46 284 -46 66 0 131 26 184 72 25 22 48 38 51 36 9 -10 84 -217
109 -303 24 -85 65 -288 65 -327 0 -16 -9 -18 -73 -18 l-73 0 -23 123 c-34
187 -53 227 -107 227 -12 0 -33 -9 -48 -21 -32 -25 -33 -48 -7 -161 11 -46 22
-102 26 -125 l7 -43 -39 0 c-52 0 -123 -37 -150 -79 -21 -31 -23 -46 -23 -161
0 -115 2 -130 23 -161 27 -42 98 -79 150 -79 l38 0 -7 -47 c-12 -84 -60 -265
-99 -368 -179 -481 -565 -874 -1050 -1070 -91 -37 -310 -97 -397 -109 l-48 -7
0 38 c0 52 -37 123 -79 150 -31 21 -46 23 -161 23 -115 0 -130 -2 -161 -23
-42 -27 -79 -98 -79 -150 l0 -38 -47 7 c-88 12 -307 72 -398 109 -484 196
-871 589 -1050 1070 -39 103 -87 284 -99 368 l-7 47 38 0 c52 0 123 37 150 79
21 31 23 46 23 161 0 115 -2 130 -23 161 -27 42 -98 79 -149 79 -21 0 -38 5
-38 11 0 6 9 56 20 111 133 650 598 1179 1225 1393 92 32 297 82 343 84 7 1
12 -13 12 -37z m2471 -63 c122 -25 134 -30 159 -72 24 -39 25 -84 4 -117 -27
-41 -577 -590 -606 -606 -39 -21 -76 -18 -268 21 -95 19 -176 35 -179 35 -3 0
165 171 374 380 209 209 387 380 396 380 9 0 63 -9 120 -21z m-4011 -1739 l0
-90 -312 2 -313 3 -3 74 c-2 41 -1 80 2 88 4 10 65 13 316 13 l310 0 0 -90z
m4185 0 l0 -85 -312 -3 -313 -2 0 90 0 90 313 -2 312 -3 0 -85z m-269 -292
c-48 -370 -220 -767 -463 -1068 -72 -89 -264 -277 -348 -341 -187 -143 -432
-274 -638 -342 -117 -39 -299 -82 -389 -93 l-58 -7 0 76 0 76 58 7 c90 11 283
60 390 100 495 184 888 541 1116 1015 81 167 130 314 164 491 l27 138 74 0 74
0 -7 -52z m-2048 -1800 l-3 -313 -85 0 -85 0 -3 313 -2 312 90 0 90 0 -2 -312z"/>
</g>
</svg>
