<?xml version="1.0" standalone="no"?>
<!DOCTYPE svg PUBLIC "-//W3C//DTD SVG 20010904//EN"
 "http://www.w3.org/TR/2001/REC-SVG-20010904/DTD/svg10.dtd">
<svg version="1.0" xmlns="http://www.w3.org/2000/svg"
 width="512.000000pt" height="512.000000pt" viewBox="0 0 512.000000 512.000000"
 preserveAspectRatio="xMidYMid meet">

<g transform="translate(0.000000,512.000000) scale(0.100000,-0.100000)"
fill="#000000" stroke="none">
<path d="M3410 5017 c-117 -54 -172 -191 -121 -302 21 -47 71 -99 112 -115
l29 -12 -2 -816 -3 -815 -45 -15 c-61 -21 -161 -121 -182 -182 l-15 -45 -110
-5 c-91 -4 -115 -9 -132 -24 -25 -23 -27 -53 -5 -84 14 -21 23 -22 129 -22
l113 0 17 -50 c22 -66 92 -142 163 -177 48 -24 69 -28 137 -28 102 1 166 27
230 96 66 71 89 127 89 219 0 148 -86 263 -236 313 -17 6 -18 31 -18 327 l0
320 50 -20 c172 -68 329 -45 712 103 161 62 238 80 338 80 95 0 165 -21 242
-73 53 -36 100 -39 122 -8 14 20 16 81 16 469 l0 447 -35 31 c-41 36 -107 70
-185 97 -42 14 -81 19 -165 18 -134 -1 -193 -16 -448 -112 -101 -39 -216 -78
-255 -87 -98 -24 -237 -17 -309 14 -29 13 -53 26 -52 30 0 3 19 20 42 36 138
101 110 324 -50 392 -39 16 -138 16 -173 0z m151 -146 c21 -22 29 -39 29 -66
0 -51 -44 -95 -95 -95 -27 0 -44 8 -66 29 -21 22 -29 39 -29 66 0 27 8 44 29
66 22 21 39 29 66 29 27 0 44 -8 66 -29z m1234 -276 c28 -9 65 -26 83 -37 l32
-20 0 -347 0 -347 -72 25 c-60 20 -92 25 -178 25 -128 0 -204 -19 -438 -108
-199 -76 -255 -93 -345 -106 -89 -13 -173 0 -254 40 l-63 31 0 351 c0 330 1
350 18 343 82 -34 144 -47 232 -47 134 0 233 27 512 135 111 44 197 70 263 80
52 9 158 -1 210 -18z m-1219 -1784 c178 -81 120 -355 -75 -356 -75 0 -126 26
-162 84 -48 74 -35 187 28 243 53 48 140 60 209 29z"/>
<path d="M2630 2683 c-125 -31 -280 -127 -355 -218 -87 -107 -152 -246 -135
-290 22 -59 101 -51 126 12 56 147 159 263 285 325 41 20 92 40 113 44 44 8
86 43 86 71 0 25 -25 59 -48 65 -10 3 -42 -1 -72 -9z"/>
<path d="M929 2550 c-463 -57 -821 -438 -846 -900 -10 -174 31 -339 136 -555
139 -283 392 -617 689 -908 l99 -97 371 0 c411 0 402 -1 402 65 0 63 -11 65
-308 65 l-263 0 98 108 c397 434 622 808 678 1130 18 101 19 164 4 269 -53
382 -339 703 -709 797 -108 27 -254 38 -351 26z m346 -160 c289 -92 496 -313
570 -605 24 -94 24 -266 1 -360 -73 -297 -330 -693 -688 -1059 l-118 -121
-130 134 c-394 403 -652 829 -692 1140 -42 323 150 666 457 818 134 67 213 83
390 79 111 -3 155 -8 210 -26z"/>
<path d="M898 2071 c-281 -90 -411 -409 -276 -676 29 -55 122 -150 182 -184
191 -108 429 -72 578 87 144 154 171 376 67 558 -34 60 -129 153 -184 182
-107 54 -258 68 -367 33z m300 -151 c71 -38 110 -77 149 -153 24 -45 28 -64
28 -142 0 -77 -4 -98 -26 -146 -34 -72 -96 -134 -168 -168 -47 -22 -70 -26
-141 -26 -71 0 -94 4 -140 26 -77 36 -121 78 -160 151 -80 149 -35 342 102
436 70 48 123 63 213 59 68 -3 89 -8 143 -37z"/>
<path d="M2135 1946 c-23 -24 -26 -32 -20 -69 32 -198 181 -401 362 -495 106
-55 151 -56 171 -2 16 43 -2 65 -85 106 -151 74 -281 235 -313 389 -13 63 -26
82 -62 90 -21 5 -33 1 -53 -19z"/>
<path d="M2842 1407 c-27 -29 -28 -61 -2 -87 19 -19 33 -20 389 -20 l370 0 15
22 c22 31 20 64 -4 88 -19 19 -33 20 -383 20 l-364 0 -21 -23z"/>
<path d="M3825 1405 c-28 -27 -31 -52 -11 -81 13 -18 32 -19 298 -25 256 -5
289 -8 345 -27 106 -37 147 -23 141 47 -3 32 -8 39 -48 58 -89 42 -180 53
-450 53 l-251 0 -24 -25z"/>
<path d="M4727 1172 c-25 -28 -21 -58 19 -123 63 -104 78 -160 79 -289 0 -102
-3 -124 -29 -193 -31 -86 -29 -121 9 -139 60 -27 96 14 135 153 25 90 27 247
5 334 -18 73 -85 211 -119 248 -30 32 -75 36 -99 9z"/>
<path d="M4558 290 c-119 -62 -163 -70 -393 -70 -165 0 -204 -3 -223 -16 -28
-20 -30 -74 -3 -98 17 -16 42 -17 258 -14 228 3 241 4 311 30 97 35 181 87
188 115 9 36 -3 69 -31 81 -14 7 -27 12 -28 12 -1 0 -36 -18 -79 -40z"/>
<path d="M1987 209 c-39 -23 -41 -86 -3 -111 6 -4 176 -8 377 -8 342 0 367 1
382 18 25 27 22 78 -5 96 -19 14 -72 16 -378 16 -229 -1 -361 -4 -373 -11z"/>
<path d="M2962 204 c-28 -19 -30 -74 -4 -97 17 -15 58 -17 383 -17 200 0 369
4 375 8 39 25 36 90 -5 111 -13 7 -143 11 -373 11 -304 0 -357 -2 -376 -16z"/>
</g>
</svg>
