<?xml version="1.0" standalone="no"?>
<!DOCTYPE svg PUBLIC "-//W3C//DTD SVG 20010904//EN"
 "http://www.w3.org/TR/2001/REC-SVG-20010904/DTD/svg10.dtd">
<svg version="1.0" xmlns="http://www.w3.org/2000/svg"
 width="512.000000pt" height="512.000000pt" viewBox="0 0 512.000000 512.000000"
 preserveAspectRatio="xMidYMid meet">

<g transform="translate(0.000000,512.000000) scale(0.100000,-0.100000)"
fill="#000000" stroke="none">
<path d="M581 5104 c-163 -44 -297 -185 -331 -347 -7 -36 -10 -699 -8 -2227
l3 -2175 23 -57 c48 -118 152 -222 269 -270 l58 -23 1135 -3 c787 -2 1151 1
1187 8 120 25 247 120 306 227 53 99 57 136 57 646 l0 468 103 -7 c390 -26
790 128 1077 416 202 202 331 440 392 723 29 139 31 387 4 532 -51 276 -176
519 -369 721 -202 212 -434 344 -721 412 -98 23 -132 26 -298 27 l-188 0 0
265 c0 201 -4 280 -15 329 -39 164 -165 293 -330 336 -86 22 -2271 22 -2354
-1z m364 -396 c40 -123 78 -222 91 -237 l22 -26 700 0 c670 0 701 1 721 19 13
12 47 98 93 238 l73 220 125 -4 c96 -3 133 -8 160 -22 49 -25 98 -74 123 -121
21 -38 22 -55 25 -341 l3 -300 -103 -38 c-410 -150 -734 -485 -868 -896 -51
-157 -64 -247 -64 -440 0 -141 5 -195 22 -277 25 -116 71 -251 113 -335 l29
-58 -85 -317 c-47 -175 -85 -327 -85 -339 0 -30 43 -80 76 -88 17 -5 132 22
349 79 l323 86 53 -26 c29 -15 94 -42 143 -60 l91 -33 0 -503 c0 -498 0 -505
-22 -544 -25 -47 -74 -95 -123 -121 -34 -18 -82 -19 -1170 -19 -1088 0 -1136
1 -1170 19 -49 26 -98 74 -123 121 l-22 40 0 2175 c0 2102 1 2176 19 2210 36
68 97 120 166 141 14 4 75 8 136 8 l110 1 69 -212z m1479 185 c-4 -16 -24 -77
-44 -138 l-37 -110 -583 0 -583 0 -44 130 c-23 71 -43 133 -43 137 0 4 302 8
670 8 l670 0 -6 -27z m1232 -928 c199 -35 377 -111 535 -229 420 -316 591
-864 424 -1362 -105 -313 -334 -569 -638 -714 -331 -158 -706 -156 -1046 6
-62 30 -119 54 -126 54 -7 0 -122 -29 -255 -65 -133 -36 -248 -65 -254 -65 -8
0 11 88 57 260 l69 261 -48 97 c-98 201 -128 331 -128 552 -1 221 28 348 125
545 168 344 498 590 884 659 107 19 292 19 401 1z"/>
<path d="M1663 1146 c-138 -45 -227 -147 -254 -291 -27 -145 59 -303 201 -373
48 -24 67 -27 150 -27 114 0 162 18 241 92 228 214 90 591 -224 609 -45 2 -88
-1 -114 -10z m171 -209 c137 -77 83 -287 -74 -287 -61 0 -108 31 -138 92 -18
35 -22 55 -16 82 20 111 133 167 228 113z"/>
<path d="M2705 3287 c-26 -14 -48 -37 -62 -67 -23 -44 -23 -49 -23 -459 0
-393 1 -417 20 -455 11 -23 36 -52 57 -66 l37 -25 565 0 c553 0 567 0 601 21
55 32 80 77 80 145 0 34 4 59 10 59 6 0 43 -16 83 -36 99 -50 123 -56 163 -39
64 26 65 37 62 411 l-3 336 -33 29 c-44 40 -72 37 -181 -16 -51 -25 -94 -45
-97 -45 -2 0 -4 26 -4 59 0 64 -22 107 -73 145 -28 21 -38 21 -595 23 l-567 3
-40 -23z m1075 -527 l0 -350 -477 2 -478 3 -3 348 -2 347 480 0 480 0 0 -350z
m316 -137 c-2 -3 -29 7 -60 22 l-56 26 0 90 0 89 58 29 57 29 3 -140 c1 -78 1
-143 -2 -145z"/>
</g>
</svg>
