<?xml version="1.0" standalone="no"?>
<!DOCTYPE svg PUBLIC "-//W3C//DTD SVG 20010904//EN"
 "http://www.w3.org/TR/2001/REC-SVG-20010904/DTD/svg10.dtd">
<svg version="1.0" xmlns="http://www.w3.org/2000/svg"
 width="1293.000000pt" height="1551.000000pt" viewBox="0 0 1293.000000 1551.000000"
 preserveAspectRatio="xMidYMid meet">

<g transform="translate(0.000000,1551.000000) scale(0.100000,-0.100000)"
fill="#000000" stroke="none">
<path d="M0 7755 l0 -7755 1431 0 c1271 0 1430 2 1419 15 -17 21 0 39 52 54
24 7 50 19 58 26 44 37 135 66 300 95 l174 30 53 52 53 53 0 578 c0 317 -4
577 -8 577 -5 0 -32 -7 -61 -16 -29 -8 -55 -13 -58 -10 -8 8 88 66 109 66 13
0 18 8 18 29 0 32 -17 40 -85 41 l-40 1 45 23 c25 13 54 34 64 45 20 22 20 23
-22 209 -23 103 -46 216 -53 252 -15 86 -13 230 5 365 28 206 31 281 12 309
-36 56 -134 38 -156 -28 -22 -68 -111 -114 -196 -102 -87 11 -156 47 -220 110
-51 52 -72 85 -137 216 -174 357 -234 593 -168 664 11 11 30 41 43 65 17 34
31 47 55 53 25 7 34 16 41 41 5 17 15 32 23 32 26 1 36 14 59 77 18 50 36 76
89 129 70 69 133 109 173 109 13 0 29 4 37 9 16 10 10 23 -53 125 -40 66 -44
100 -26 211 18 113 30 280 45 630 8 193 22 471 31 618 9 147 13 284 10 303 -5
26 -14 37 -40 48 -19 8 -37 19 -41 26 -11 18 3 58 25 65 22 7 34 37 25 65 -4
14 -15 20 -36 20 -18 0 -32 6 -36 16 -8 23 24 88 64 126 45 43 65 82 57 112
-3 15 2 39 15 64 12 23 21 52 21 66 0 40 9 54 61 91 29 20 51 45 55 61 4 15
-1 79 -10 143 -9 64 -20 171 -24 239 l-9 122 -47 69 c-26 38 -85 113 -132 166
-47 54 -103 121 -124 149 -110 148 -156 325 -167 646 -7 234 7 320 88 518 12
30 12 35 -3 46 -29 21 -38 63 -38 179 0 127 17 250 55 417 34 147 37 232 8
280 -30 50 -48 158 -47 285 0 106 1 114 41 210 62 150 73 214 98 570 8 121 22
316 31 434 21 271 15 438 -19 576 -44 176 -52 242 -51 430 0 276 40 453 150
678 30 60 54 119 54 131 0 12 -10 69 -22 128 -20 97 -21 114 -10 200 14 111
46 227 109 396 l45 122 -118 123 c-143 147 -179 205 -179 292 0 47 7 71 29
112 16 29 40 60 53 68 13 9 33 37 44 62 33 77 319 353 366 353 8 0 42 26 76
58 34 32 176 154 315 271 138 117 252 215 252 217 0 2 -922 4 -2050 4 l-2050
0 0 -7755z"/>
<path d="M4590 15496 c59 -15 70 -24 190 -140 l100 -97 -64 -112 c-169 -299
-284 -543 -312 -665 -8 -36 -33 -94 -55 -130 -21 -36 -39 -76 -39 -89 0 -35
34 -63 78 -63 85 -1 186 -80 242 -189 16 -34 27 -61 22 -61 -4 0 -39 32 -77
71 -80 80 -177 149 -210 149 -43 0 -49 -21 -35 -124 7 -52 9 -99 5 -105 -4 -8
-23 -9 -54 -5 -41 5 -51 3 -68 -16 -31 -33 -48 -105 -48 -205 0 -77 4 -96 24
-130 28 -49 29 -76 0 -190 -17 -67 -23 -118 -22 -200 0 -116 2 -124 78 -305
l28 -65 -9 -255 c-15 -423 -14 -430 61 -659 114 -350 195 -661 195 -750 0 -39
-7 -66 -24 -95 -13 -23 -29 -68 -35 -100 -6 -33 -18 -68 -28 -78 -15 -17 -15
-18 11 -18 46 0 80 -45 104 -136 28 -104 29 -160 2 -176 -28 -18 -25 -28 8
-28 59 0 67 -48 26 -145 -57 -133 -57 -138 -29 -279 29 -149 51 -310 65 -488
17 -220 33 -745 27 -933 -6 -225 6 -308 69 -457 l46 -108 -37 -67 c-70 -127
-125 -187 -228 -247 -90 -53 -94 -97 -37 -346 54 -231 80 -363 80 -404 0 -56
-16 -36 -45 55 l-24 74 2 -95 2 -95 -26 3 c-32 3 -53 -20 -44 -48 8 -25 17
-25 84 1 30 11 63 19 75 17 18 -3 15 -7 -21 -32 -50 -33 -67 -58 -83 -115 -8
-31 -20 -48 -46 -63 -19 -11 -34 -24 -34 -29 0 -17 34 -9 71 17 24 16 56 27
92 31 68 7 100 -1 127 -30 15 -16 33 -22 63 -22 36 0 42 -3 45 -22 5 -32 -61
-71 -199 -118 -63 -21 -118 -42 -123 -46 -15 -13 40 -29 101 -29 48 0 68 7
154 54 l98 54 5 -31 c3 -18 7 -53 10 -78 7 -66 23 -94 59 -105 44 -13 44 -30
2 -68 l-37 -34 24 -15 c12 -8 58 -27 100 -42 73 -26 77 -29 73 -54 -11 -63
-35 -310 -45 -466 -14 -212 -31 -315 -76 -457 -51 -162 -64 -256 -64 -447 l0
-167 -196 -144 -196 -144 9 -101 c11 -141 8 -295 -12 -435 -15 -110 -15 -126
-1 -181 22 -84 21 -97 -16 -175 -31 -65 -33 -75 -33 -184 0 -105 2 -120 27
-170 54 -110 63 -172 62 -430 0 -177 -6 -281 -23 -420 -41 -341 -95 -610 -140
-699 -20 -39 -20 -39 -1 -61 22 -25 22 -26 24 -145 l1 -80 40 -5 c27 -3 40
-10 40 -20 0 -11 -16 -16 -66 -20 -41 -3 -74 -11 -85 -21 -36 -31 -44 -31 -73
2 -34 37 -48 32 -75 -26 -20 -41 -12 -64 25 -72 38 -7 48 -23 15 -23 -44 0
-59 -37 -54 -135 4 -76 7 -88 32 -114 23 -24 25 -30 12 -40 -38 -32 -91 -246
-126 -517 -12 -88 -32 -189 -44 -226 l-22 -68 1535 0 c1795 0 2276 11 3061 71
701 53 1087 112 1381 210 757 252 1459 747 1968 1386 595 748 901 1697 901
2798 0 917 -213 1717 -625 2350 -284 437 -615 766 -1085 1079 -213 142 -344
216 -593 336 -97 47 -177 87 -176 90 0 3 55 42 122 87 887 598 1392 1398 1536
2434 36 259 45 415 44 764 -1 866 -117 1519 -367 2075 -209 464 -537 854 -951
1129 -633 422 -1475 641 -2660 691 -368 15 -3643 12 -3585 -4z m3468 -3414
c126 -28 204 -55 297 -103 360 -184 575 -555 575 -994 0 -591 -278 -987 -827
-1178 -234 -82 -596 -137 -895 -137 l-98 0 0 -1914 0 -1915 753 -4 c671 -3
760 -6 827 -21 242 -56 397 -142 571 -315 204 -203 328 -448 360 -714 22 -181
-20 -428 -105 -620 -68 -154 -217 -332 -366 -436 -158 -111 -391 -207 -605
-250 -221 -44 -255 -46 -1065 -46 l-775 0 -3 4338 -2 4338 632 -4 c599 -3 638
-5 726 -25z"/>
</g>
</svg>
